<svg width="18" height="18" viewBox="0 0 18 18" fill="none" xmlns="http://www.w3.org/2000/svg">
<g clip-path="url(#clip0_33:223)">
<path d="M17.4334 8.87283C17.4334 4.11704 13.5781 0.261719 8.82229 0.261719C4.0665 0.261719 0.211182 4.11704 0.211182 8.87283C0.211182 13.1709 3.36016 16.7333 7.47681 17.3793V11.362H5.29039V8.87283H7.47681V6.97569C7.47681 4.81753 8.76238 3.62543 10.7294 3.62543C11.6715 3.62543 12.6569 3.79362 12.6569 3.79362V5.91276H11.5711C10.5014 5.91276 10.1678 6.57652 10.1678 7.25751V8.87283H12.556L12.1742 11.362H10.1678V17.3793C14.2845 16.7333 17.4334 13.1709 17.4334 8.87283Z" fill="white"/>
</g>
<defs>
<clipPath id="clip0_33:223">
<rect width="17.2222" height="17.2222" fill="white" transform="translate(0.211182 0.210938)"/>
</clipPath>
</defs>
</svg>
