<svg width="18" height="19" viewBox="0 0 18 19" fill="none" xmlns="http://www.w3.org/2000/svg">
<path d="M8.90895 11.0273C9.79469 11.0273 10.5127 10.3093 10.5127 9.42358C10.5127 8.53784 9.79469 7.81982 8.90895 7.81982C8.02322 7.81982 7.30519 8.53784 7.30519 9.42358C7.30519 10.3093 8.02322 11.0273 8.90895 11.0273Z" fill="white"/>
<path d="M10.9136 5.48708H6.90421C6.32103 5.48708 5.81074 5.66933 5.4827 5.99737C5.15466 6.32541 4.97241 6.8357 4.97241 7.41889V11.4283C4.97241 12.0115 5.15465 12.5218 5.51915 12.8863C5.88364 13.2143 6.35748 13.3965 6.94066 13.3965H10.9136C11.4968 13.3965 12.0071 13.2143 12.3351 12.8863C12.6996 12.5582 12.8819 12.0479 12.8819 11.4647V7.45533C12.8819 6.87215 12.6996 6.39831 12.3716 6.03382C12.0071 5.66933 11.5333 5.48708 10.9136 5.48708ZM8.90892 11.9021C7.52385 11.9021 6.43038 10.7722 6.43038 9.42359C6.43038 8.03852 7.5603 6.94505 8.90892 6.94505C10.2575 6.94505 11.4239 8.03852 11.4239 9.42359C11.4239 10.8087 10.294 11.9021 8.90892 11.9021ZM11.4968 7.41889C11.1688 7.41889 10.9136 7.16374 10.9136 6.8357C10.9136 6.50766 11.1688 6.25251 11.4968 6.25251C11.8248 6.25251 12.08 6.50766 12.08 6.8357C12.08 7.16374 11.8248 7.41889 11.4968 7.41889Z" fill="white"/>
<path d="M8.98187 0.384277C4.02479 0.384277 0.0153809 4.39368 0.0153809 9.35077C0.0153809 14.3079 4.02479 18.3173 8.98187 18.3173C13.939 18.3173 17.9484 14.3079 17.9484 9.35077C17.9848 4.39368 13.939 0.384277 8.98187 0.384277ZM13.7567 11.4648C13.7567 12.3031 13.4651 13.0321 12.9548 13.5424C12.4445 14.0527 11.7156 14.3079 10.9137 14.3079H6.94072C6.13884 14.3079 5.40985 14.0527 4.89957 13.5424C4.35283 13.0321 4.09768 12.3031 4.09768 11.4648V7.45541C4.09768 5.77875 5.22761 4.61238 6.94072 4.61238H10.9501C11.7885 4.61238 12.481 4.90397 12.9913 5.41426C13.5016 5.92455 13.7567 6.61708 13.7567 7.45541V11.4648Z" fill="white"/>
</svg>
