<svg width="18" height="18" viewBox="0 0 18 18" fill="none" xmlns="http://www.w3.org/2000/svg">
<g clip-path="url(#clip0_33:230)">
<path d="M17.7889 8.82205C17.7889 4.06626 13.9335 0.210938 9.17776 0.210938C4.42198 0.210938 0.56665 4.06626 0.56665 8.82205C0.56665 13.5778 4.42198 17.4332 9.17776 17.4332C13.9335 17.4332 17.7889 13.5778 17.7889 8.82205Z" fill="white"/>
<path d="M11.2394 4.3425C10.0176 4.37346 9.0375 5.37347 9.0375 6.60292C9.0375 6.77991 9.05648 6.95293 9.09519 7.11873C7.21571 7.0243 5.54938 6.12406 4.434 4.75584C4.23934 5.08967 4.12744 5.47854 4.12744 5.89336C4.12744 6.67782 4.52728 7.36946 5.13408 7.77489C4.76355 7.76303 4.41433 7.66097 4.10936 7.49159C4.10919 7.50098 4.10936 7.51124 4.10936 7.52086C4.10936 8.61634 4.88911 9.52928 5.92372 9.73737C5.73398 9.78883 5.53413 9.81659 5.32783 9.81659C5.18195 9.81659 5.04049 9.80274 4.90244 9.77612C5.19041 10.6745 6.02447 11.3287 7.01389 11.3468C6.23994 11.9534 5.26634 12.3147 4.20666 12.3147C4.02431 12.3147 3.84373 12.3047 3.66675 12.2837C4.6678 12.9256 5.85579 13.2998 7.13272 13.2998C11.2924 13.2998 13.5669 9.85394 13.5669 6.86556C13.5669 6.76756 13.5652 6.66903 13.5609 6.57192C14.0026 6.25375 14.386 5.85521 14.689 5.40167C14.2838 5.58179 13.848 5.7038 13.3904 5.75817C13.8576 5.47848 14.2161 5.03547 14.385 4.50698C13.948 4.7663 13.464 4.95478 12.9487 5.05636C12.5363 4.61692 11.9483 4.3425 11.2979 4.3425C11.2784 4.3425 11.2588 4.34201 11.2394 4.3425V4.3425Z" fill="#70346D"/>
</g>
<defs>
<clipPath id="clip0_33:230">
<rect width="17.2222" height="17.2222" fill="white" transform="translate(0.56665 0.210938)"/>
</clipPath>
</defs>
</svg>
