<svg id="Layer_1" data-name="Layer 1" xmlns="http://www.w3.org/2000/svg" viewBox="0 0 418.7 186.72"><defs><style>.cls-1{fill:#74b9df;}.cls-2{fill:#bf1260;}.cls-3{fill:#fff;}</style></defs><title>logo</title><path d="M423.24,26.66H149.48l-.13,0a1.74,1.74,0,0,1-.69.25c51.23,3.6,91.62,44.07,91.62,93.48,0,47.11-36.71,86.09-84.52,92.75H423.24a31.59,31.59,0,0,0,31.59-31.59V58.24A31.58,31.58,0,0,0,423.24,26.66Z" transform="translate(-36.13 -26.66)"/><path class="cls-1" d="M248.93,109.23c0,.54,0,1.07,0,1.6a1,1,0,0,0,1.17,1.06c.26,0,.53,0,.8,0,9.23,0,18.46,0,27.69,0a17.21,17.21,0,0,0,12-4.88c.58-.55,1.21-1,1.82-1.57a1.92,1.92,0,0,1,.35-.18,1.4,1.4,0,0,1,.08.52c-.42,1.55-.88,3.09-1.28,4.64-.33,1.25-.18,1.47,1,1.48,5.08,0,10.17,0,15.25,0a1.24,1.24,0,0,0,1.4-1.1l.93-4.09c.4-1.72.64-2,2.4-2,2.06-.08,4.12-.06,6.18-.06,3,0,6,0,9,0,1.24,0,1.34.09,1.67,1.27.41,1.48.75,3,1.14,4.46s.41,1.51,2,1.52c2,0,4,0,6,0,2.95,0,5.89,0,8.83,0,.94,0,1.09-.21.83-1.1-.73-2.5-1.49-5-2.25-7.48Q341.4,88.18,336.76,73c-2-6.57-4-13.16-6.05-19.72-.94-3-.46-2.53-3.36-2.54-4.68,0-9.36,0-14,0-3.2,0-3.26,0-4.25,3.12q-5.9,18.72-11.72,37.47c-.18.57-.35,1.15-.55,1.71a1.92,1.92,0,0,1-.34.48,3.1,3.1,0,0,1-.26-.47c-.38-1.14-.74-2.29-1.11-3.43a14,14,0,0,0-2.87-5.46,32,32,0,0,0-3.15-2.77c-.93-.75-.95-.71-.21-1.68s1.66-2.1,2.43-3.2c4.64-6.62,2.18-15.3-1.81-19.44a21.14,21.14,0,0,0-10.11-5.43,52.68,52.68,0,0,0-13.1-1.49c-4.74-.09-9.48.21-14.22.35-.67,0-1.33.21-2,.22-.89,0-1.16.49-1.12,1.29,0,.47,0,.94,0,1.4v55.79Zm68.54-25.07c.77-2.82,1.58-5.64,2.38-8.46a2.38,2.38,0,0,1,.26-.5,2.78,2.78,0,0,1,.22.54c.88,3.56,1.74,7.11,2.63,10.67.19.76-.19.94-.84.94h-2.2v.13l-3.1-.41C317,86.09,317.21,85.11,317.47,84.16Zm-48.85-20c.4,0,.8,0,1.2,0l.05-.19a38,38,0,0,1,3.85,1,4.08,4.08,0,0,1,2.9,3.91c.09,2.06-.32,3.85-2.33,4.92a11,11,0,0,1-5.62,1.11c-1,0-1.25-.3-1.26-1.38,0-2.67,0-5.35,0-8C267.41,64.19,267.46,64.17,268.62,64.11ZM266.7,92.53h0c0-1.66,0-3.32,0-5,0-.57.07-.89.7-.91a17.35,17.35,0,0,1,7.12.85A5.69,5.69,0,0,1,276,96.93a5.16,5.16,0,0,1-2.3,1.15c-2,.29-4,.36-6,.49-.73.05-1.08-.25-1.05-1.07C266.74,95.85,266.7,94.19,266.7,92.53Z" transform="translate(-36.13 -26.66)"/><path class="cls-1" d="M346.29,50.77c-2.21,0-4.42,0-6.62,0-1.28,0-1.34,0-1.35,1.19q0,7.72,0,15.45c0,1,.08,1.07,1.2,1.13.53,0,1.07,0,1.6,0,2.74.09,5.47.16,8.21.31,1.25.07,1.3.19,1.38,1.47,0,.6.06,1.2.05,1.8-.09,6.28-.22,12.56-.28,18.84-.05,5.88,0,11.76,0,17.65,0,.59.15,1.19.19,1.78.06.84.51,1.1,1.32,1.1,5,0,9.9,0,14.85,0,1.17,0,1.27-.09,1.26-1.27,0-6.41.14-12.84-.13-19.25-.28-6.89-.23-13.75.16-20.62.1-1.72.19-1.8,1.89-1.82,2.8,0,5.61,0,8.42-.08,1.61,0,1.7-.12,1.7-1.75,0-4.81,0-9.62,0-14.44,0-.2,0-.4,0-.6a.77.77,0,0,0-.89-.84l-1.6,0H359.32v0Z" transform="translate(-36.13 -26.66)"/><path class="cls-1" d="M399.41,52.28c0-1.42-.05-1.46-1.47-1.46q-7.32,0-14.64,0c-1.55,0-1.58,0-1.59,1.56,0,12,0,24.07,0,36.1a27.7,27.7,0,0,0,.79,6.14A23,23,0,0,0,420.22,106c4.72-4.17,7.41-9.36,7.33-15.83-.08-6,0-11.91,0-17.86V53.08a8.47,8.47,0,0,0-.06-1.6,1,1,0,0,0-.61-.64,3.9,3.9,0,0,0-1.19-.07l-13.84.06H411c-.56,0-.88.25-.89.83s0,1.07,0,1.6c0,6.56,0,13.11,0,19.66,0,3.34.27,6.67.3,10a33.26,33.26,0,0,1-.37,5.18,10.05,10.05,0,0,1-1.06,3,4.08,4.08,0,0,1-3.72,2.3c-2.87.14-4.75-1.09-5.45-3.93a28.26,28.26,0,0,1-.74-5.34c-.08-1.45.21-2.92.22-4.39Q399.4,66,399.41,52.28Z" transform="translate(-36.13 -26.66)"/><path class="cls-2" d="M427.62,131.71a20.78,20.78,0,0,0-8.5-14,19.88,19.88,0,0,0-10.12-4,19.64,19.64,0,0,0-9.79,1.48c-5,2.23-9,5.41-10.9,10.78-.44,1.25-.83,2.52-1.26,3.78-.29.83-.14,1.83-1,2.45L385,129.72a5.58,5.58,0,0,1-.18-.58,16.85,16.85,0,0,0-3.53-7.3c-3.71-4.33-8.18-7-14-6.94H362.7c-2.28,0-4.55,0-6.82,0-.73,0-1.11.26-1.13,1,0,1.53-.15,3.06-.14,4.58,0,2.71.1,5.41.14,8.11,0,1.26,0,2.51,0,3.77v4.72c0,3,0,6,0,9,0,1.78,0,3.56,0,5.33.05,1.15.28,1.33,1.35,1.06a4.52,4.52,0,0,1,3.77.64l.12.07a7.31,7.31,0,0,1,2.19,1,10.61,10.61,0,0,0,3.17.43,4.14,4.14,0,0,0,3.72-1.81,3.7,3.7,0,0,1,4.7-1.5,3.37,3.37,0,0,0,3.21-.38,19.7,19.7,0,0,0,8.12-11.06c.24-.89.49-1.78.73-2.68,1,.69.86,1.87,1.3,2.81a.85.85,0,0,1,.06.19c.86,4,3.24,7.13,6.18,9.83,1.58,1.44,3.31,2.75,5.67,2.58a9.29,9.29,0,0,1,6.18,1.82,3,3,0,0,0,1.86.6c4.44-.05,8.58-.91,11.86-4.21a8.63,8.63,0,0,1,1-.71c1.71-1.26,3.48-2.47,4.48-4.46.62-1.25,1.33-2.46,1.88-3.75A18.32,18.32,0,0,0,427.62,131.71Zm-57,9.8a6.11,6.11,0,0,1-3.56,1.14c-.74-.05-1.09-.34-1.09-1.09,0-1.86,0-3.73,0-5.59v-2h0c0-2.33,0-4.66,0-7,0-1.1.1-1.13,1.11-1,3.5.46,6.06,2.33,7.05,5.66C375.28,135.63,374.38,139.14,370.58,141.51Zm32.93,1.15a8.24,8.24,0,0,1-5.06-7.37,9,9,0,0,1,1-5.43,8.41,8.41,0,0,1,5.55-4c5.3-1.29,9.12,1.14,10.58,5.94a16.78,16.78,0,0,1,.34,2.77C416.47,140.64,409.53,145.35,403.51,142.66Z" transform="translate(-36.13 -26.66)"/><path class="cls-2" d="M285.92,146.35c-.92-.66-1.81-1.36-2.73-2-1.45-1.07-2.87-2.17-4.36-3.17s-1.74-1-3.3.09a11,11,0,0,1-3.79,2.18,10,10,0,0,1-7.8-1.54,7.27,7.27,0,0,1-3.22-4.18,10.21,10.21,0,0,1,1.44-8.92c1.39-2.17,5.57-4,8.47-3.36a11.69,11.69,0,0,1,4.38,1.86,1.86,1.86,0,0,0,2.66-.1c.91-.77,1.95-1.41,2.84-2.2,1.2-1.07,2.3-2.23,3.45-3.35a1.07,1.07,0,0,0,.05-1.73,24.27,24.27,0,0,0-1.91-1.76c-4.26-3.27-9.3-3.91-14.39-3.9a17.21,17.21,0,0,0-9.08,2.73,20.16,20.16,0,0,0-10,17.42A18,18,0,0,0,252,145.5a21.11,21.11,0,0,0,15.06,9.06c.5,0,1-.07,1.51-.08a2.23,2.23,0,0,1,1.23.33h.13c1.3-.15,2.83-.23,4.33-.51,4.75-.88,8.18-4,11.68-7C286.32,147,286.39,146.68,285.92,146.35Z" transform="translate(-36.13 -26.66)"/><path class="cls-2" d="M321.11,151.93c-1.19-4-2.37-7.92-3.57-11.88q-2.12-7-4.26-14c-1.09-3.5-2.24-7-3.33-10.49a1.26,1.26,0,0,0-1.43-1c-1.67,0-3.34,0-5,0v-.05a42.86,42.86,0,0,1-4.8.17c-1.47-.11-2,.59-2.35,1.81-1.14,3.7-2.38,7.37-3.53,11.07q-3.1,10-6.16,20.09c-.59,2-1.08,4-1.61,6-.16.58,0,.94.65.94h9.23a1.06,1.06,0,0,0,1.16-.88c.19-.77.42-1.54.65-2.3.48-1.56.5-1.6,2.06-1.61,2.94,0,5.89,0,8.83,0,1.91,0,2.47.4,2.55,2.28a2.23,2.23,0,0,0,2.15,2.39,12.16,12.16,0,0,0,2.56,0c1.77-.11,3.5-.93,5.3-.42.89.25,1.3.09,1.19-1.15A4.88,4.88,0,0,0,321.11,151.93Zm-17-13.31a5.32,5.32,0,0,1-.55,0c-2.68,0-2.69,0-2.09-2.21.45-1.66.92-3.32,1.39-5a4.3,4.3,0,0,1,.35-.67c.19.17.48.29.56.5a25.88,25.88,0,0,1,1,2.8,22.13,22.13,0,0,1,.64,3.12C305.53,138.34,305.28,138.57,304.1,138.62Z" transform="translate(-36.13 -26.66)"/><path class="cls-2" d="M352.27,115.78a.76.76,0,0,0-.84-.87c-3-.12-6-.28-9-.36-1.26,0-1.27,0-1.31,1.41,0,.54,0,1.07,0,1.61-.07,3.27-.13,6.53-.23,9.8a3.73,3.73,0,0,1-.34,1c-.33-.27-.77-.48-1-.83-.63-1.18-1.18-2.4-1.72-3.62-1.1-2.5-2.21-5-3.25-7.54a2.17,2.17,0,0,0-2.45-1.55,16.1,16.1,0,0,1-2.16-.26,23.79,23.79,0,0,0-2.8-.06c-1.06.06-2.1.27-3.16.35-.66,0-.84.21-.84,1,0,3.21-.15,6.43-.16,9.65,0,8.69,0,17.38,0,26.08a13.08,13.08,0,0,0,0,1.4,1.21,1.21,0,0,0,2,.93,3.19,3.19,0,0,0,.73-.69,1.18,1.18,0,0,1,1.61-.29c.47.24,1.11.28,1.45.64,1,1.08,2.2.78,3.41.63.59-.08.75-.43.78-1q.18-3,.41-6c.12-1.73.27-3.45.43-5.17a1.52,1.52,0,0,1,.24-.54c.2.13.5.2.6.38.7,1.3,1.32,2.63,2,3.92,1.35,2.46,2.7,4.92,4.11,7.34.42.73.85,1.44,2,1.4,2.81-.09,5.62,0,8.42,0,.75,0,.9-.28.91-.93,0-2.33.09-4.66.1-7,0-3.88,0-7.76,0-11.64h0V117.19C352.29,116.72,352.27,116.25,352.27,115.78Z" transform="translate(-36.13 -26.66)"/><path class="cls-3" d="M410.22,177.9c.06.43.22,1,.54,1.2a27.87,27.87,0,0,0,4.28,2.11c1.08.4,1.75,0,2.29-1.07a10.19,10.19,0,0,0,.68-1.87,2.77,2.77,0,0,1,2.23-2.07,26.3,26.3,0,0,1,3.56-.29,2.87,2.87,0,0,1,3,1.86,9.07,9.07,0,0,0,1.11,1.66,5.68,5.68,0,0,0,3.53,2.1c1.52.31,2.1,0,2.63-1.4a6.67,6.67,0,0,0,0-4.7c-.77-2.21-1.54-4.41-2.26-6.63-1.17-3.61-2.29-7.24-3.48-10.85a14.32,14.32,0,0,0-1.19-2.54,8.73,8.73,0,0,0-4.37-3.95c-1.61-.65-2.13-.54-3.29.84a24.13,24.13,0,0,0-3.63,6.2c-1,2.21-1.88,4.42-2.82,6.63a3.9,3.9,0,0,1-2.89,2.44c-2.32.6-2.77.85-1.36,3.48a1,1,0,0,0,.12.16,6.27,6.27,0,0,1,1.29,4.91A11.78,11.78,0,0,0,410.22,177.9Zm12-12.92c.64.12.71.68.73,1.21a1.05,1.05,0,0,1-1,1.22c-.81.06-.75-.53-.79-1C421.22,165.53,421.68,164.88,422.24,165Z" transform="translate(-36.13 -26.66)"/><path class="cls-3" d="M400.52,182.52c1.13-.39,2.27-.79,3.39-1.2a12.33,12.33,0,0,0,4.3-2.5c2.27-2.08,2.14-4.41-.52-6.33-.33-.23-.71-.37-1.06-.57a2.71,2.71,0,0,0-3.18.32c-.48.37-.87.84-1.33,1.22a7.78,7.78,0,0,1-1.47,1,2,2,0,0,1-2.89-.85,7.81,7.81,0,0,1,.73-8.81,1.41,1.41,0,0,1,.34-.19,1.32,1.32,0,0,1,.15.35,16,16,0,0,0,.47,2.55,2.06,2.06,0,0,0,3.72.56,1.49,1.49,0,0,0,.24-.32,12.25,12.25,0,0,0,1.83-8.4,5.69,5.69,0,0,0-6.22-5,9.74,9.74,0,0,0-8.09,4.5c-1,1.56-1.78,3.28-2.65,4.93-.09.18-.16.37-.24.55a3.07,3.07,0,0,1-.08-.67c.13-1.86.29-3.72.44-5.62,0-.51,0-1,0-1.54a2.12,2.12,0,0,0,0-1.49v-.15a1.53,1.53,0,0,0-.37-1,20,20,0,0,0-2.94-2.07c-1.19-.66-1.74-.45-2.57.6a6.18,6.18,0,0,0-1.26,3.72c-.09,2-.38,4.1-.61,6.15a2.55,2.55,0,0,1-.21.56,2.93,2.93,0,0,1-.36-.43c-.62-1.1-1.19-2.24-1.87-3.31a43.17,43.17,0,0,0-3.13-4.63c-1.92-2.32-5.1-2.82-6.19,1.36a24.07,24.07,0,0,0-.75,5.13c-.14,3,0,6-.1,9,0,1.06-.2,2.12-.32,3.18a2.42,2.42,0,0,1-.16.5c-.07-.19-.16-.37-.21-.56-.12-.38-.21-.77-.32-1.15-.91-3.07-1.77-6.16-2.77-9.2-.9-2.75-2.06-5.4-4.37-7.3-2.86-2.34-5.21-1.81-6.63,1.25-1.71,3.7-3.54,7.35-5.1,11.11-.65,1.57-1.35,2.68-3.15,2.74a1.43,1.43,0,0,0-.39.11c-2,.66-2.2,1.23-.89,3a6.31,6.31,0,0,1,1.47,4.84,6.86,6.86,0,0,0,0,1.2,4,4,0,0,0,2.54,3.76,12.8,12.8,0,0,0,2.69.69,1.54,1.54,0,0,0,1.79-1c.53-1.08,1.1-2.14,1.61-3.23a1.45,1.45,0,0,1,1.55-1c.93.05,1.87,0,2.81,0,2.92.06,2.33-.45,3.87,2.2a3,3,0,0,0,.33.51c1.79,2,3.81,3.38,6.67,2.53.83-.25,1.68-.46,2.48-.78a5.63,5.63,0,0,0,3.95-5.86,20.34,20.34,0,0,1,0-2.21,8.12,8.12,0,0,1,.31-1.76c.22-.76.57-.86,1.08-.23,1,1.19,1.86,2.45,2.74,3.71a7.82,7.82,0,0,0,3.75,3.18c1.12.41,1.53.27,2.16-.75a11.56,11.56,0,0,0,1.57-5.53c0-.66,0-1.33.06-2,0-.15.14-.29.21-.44a2.19,2.19,0,0,1,.29.48c.26,1.1.45,2.22.76,3.3a7.93,7.93,0,0,0,4.5,5.34,2.49,2.49,0,0,1,1.78,2.53,6.5,6.5,0,0,0,.56,1.91.87.87,0,0,1-.45,1.18c-.29.15-.72.23-.85.48a2.4,2.4,0,0,0-.38,1.45,1.37,1.37,0,0,0,1.06.72,9.2,9.2,0,0,0,3-.16c2.15-.59,2.53-1.27,2.3-3.48a5.85,5.85,0,0,0-.22-1.18A1.11,1.11,0,0,1,400.52,182.52ZM358,170.08a2.17,2.17,0,0,1-1.16.06c-.13,0-.28-.44-.25-.66A11.49,11.49,0,0,1,357,168c.39.19.64.23.73.36a2.71,2.71,0,0,1,.38.91C358.14,169.52,358.15,170,358,170.08Z" transform="translate(-36.13 -26.66)"/><path class="cls-3" d="M322.49,188a1.39,1.39,0,0,0,1.77-.41,26,26,0,0,1,2.06-1.86,3.26,3.26,0,0,0,1.44-2.72,3,3,0,0,1,.12-1,11.49,11.49,0,0,1,.54-1.25,9.9,9.9,0,0,1,.95.88c.43.51.81,1.06,1.21,1.59a20.13,20.13,0,0,0,5.81,5.45,8.8,8.8,0,0,0,4.91,1.51,3.94,3.94,0,0,0,3.87-3.16,1.42,1.42,0,0,0-.6-1.75c-1-.58-1.94-1.16-2.95-1.68-3.6-1.84-5.39-5.08-6.57-8.71a2.53,2.53,0,0,1,1.29-3.39,10.5,10.5,0,0,0,1.76-1.32,10.72,10.72,0,0,0,3.18-4.07,7.07,7.07,0,0,0-3.86-9.45,15.53,15.53,0,0,0-4.32-.57,25.86,25.86,0,0,0-3.39.23,2.69,2.69,0,0,1-2.33-.86c-.86-.9-1.28-.84-1.72.28-1.09,2.79-2.28,5.56-2.2,8.67a14.1,14.1,0,0,1-.28,3c-.44,2.22-.95,4.43-1.45,6.64-.1.45-.25.89-.38,1.34l-.59-1.37-.15-.37c-.76-1.86-1.26-2-2.94-.93q-1.92,1.26-3.87,2.51c-.33.21-.69.43-1-.06a3.29,3.29,0,0,1,.91-4.86c.56-.36,1.18-.63,1.77-.94a3.49,3.49,0,0,0,1.92-3.27,1.93,1.93,0,0,0-2-2.2c-.6-.05-1.21,0-1.81,0a4.48,4.48,0,0,1-.9-.29c.25-.27.44-.67.74-.79,1-.41,2-.68,3-1.07a33.77,33.77,0,0,0,3.65-1.58,1.69,1.69,0,0,0,.79-1.26c-.1-2.53-1.07-3.73-3.35-3.37-2.83.46-5.64,1-8.44,1.63a4,4,0,0,0-3,2.67c-.38,1.06-.65,2.17-1,3.26a3.82,3.82,0,0,0-.09.59,2.36,2.36,0,0,1-.35-.43,8.27,8.27,0,0,0-3.14-3.31,12.41,12.41,0,0,0-14.12.47c-2.2,1.56-2.77,3.13-.71,4.81a1.74,1.74,0,0,1,.52,2c-.44,1.61-.7,3.26-1,4.89a1.88,1.88,0,0,1-.27.5c-.2-.13-.48-.21-.59-.39a6.23,6.23,0,0,0-4-3.07,4.57,4.57,0,0,1-1.24-.64c-1.91-1.14-1.84-3-.47-4.78,0-.06.46,0,.51.16.23.47.34,1,.59,1.48a1.44,1.44,0,0,0,2,.68,2.47,2.47,0,0,0,1-.9,25.1,25.1,0,0,0,1.52-3.24c1-2.57-1.15-5.1-3.12-5.66a7.1,7.1,0,0,0-7,1.85,13,13,0,0,0-3.84,7.33c-.76,3.49.34,6,3.41,7.75,1,.57,2,1.14,3,1.68a3.17,3.17,0,0,1,1.68,3.18,3.39,3.39,0,0,1-1.67,3c-1,.52-1.92-.2-2.76-.75-.33-.22-.59-.56-.92-.78a2.39,2.39,0,0,0-2.07-.45c-.51.14-1,.23-1.56.35-1,.21-1.08.15-1-.79a7,7,0,0,0-1.14-4.37,1,1,0,0,0-1.5-.44c-1,.59-1.91,1.21-2.83,1.86-.7.5-1.35,1.08-2,1.62-.29.23-.6.37-.77-.12a7.22,7.22,0,0,1-.25-4.33c.3-1.07,1.48-1.25,2.39-1.64l.37-.16a3.12,3.12,0,0,0,1.91-3.76c-.2-1.08-.46-1.32-1.62-1.35-.93,0-1.87,0-2.8,0-.21,0-.41-.28-.61-.43a2.72,2.72,0,0,1,.4-.43,11.36,11.36,0,0,1,3.76-1.3,11.58,11.58,0,0,0,3-1,3.08,3.08,0,0,0,1.22-3.86c-.49-1.43-1.4-1.95-3.17-1.69a12.55,12.55,0,0,0-2.31.63,8.78,8.78,0,0,1-4.13.59,4,4,0,0,0-4.08,2,9.78,9.78,0,0,0-1.47,3c-.45,1.8-.63,3.67-1,5.5a34.41,34.41,0,0,0-.67,8.76A19,19,0,0,0,253,182a5.75,5.75,0,0,0,3.67,3.74c3.62,1.26,7.09,1.18,10.14-1.53.3-.26.64-.48.93-.76s.72-.35,1.21-.1q2.13,1.13,4.32,2.08a8.77,8.77,0,0,0,8.43-.7l2.57-1.55c.37-.22.59-.2.7.27a12.4,12.4,0,0,0,.58,2.11c.61,1.39,1.11,1.54,2.52,1.05a5.12,5.12,0,0,0,3.05-3.5,34.47,34.47,0,0,0,1.11-4.25c1-4.28.27-3.27,4.28-4.34a11.57,11.57,0,0,0,5.31-2.66c.53-.51,1.1-1,1.66-1.46.36-.3.66-.17.67.26,0,1.27,0,2.54,0,3.81h.06c0,1.07-.06,2.15,0,3.21a6.2,6.2,0,0,0,2.18,4.78c2.77,2.19,7.18,3.47,10.73.75.48-.37.95-.75,1.44-1.1s1.05-.7,1.58-1.05c0,.66.07,1.31.07,2a5.39,5.39,0,0,1-.12.79A3.62,3.62,0,0,0,322.49,188Zm7.25-23.17a1.41,1.41,0,0,1,1.24-1.53c.78-.13,1.56-.27,2.34-.33.57,0,.67.37.5.8a5.53,5.53,0,0,1-2.4,3c-1.56.84-1.74.74-1.72-1.15C329.71,165.44,329.73,165.11,329.74,164.78Zm-31.92,3.06a12.05,12.05,0,0,1-2.11.52c-1.28-.11-1.27-.12-1.53-1.41-.22-1-.23-2.19.57-2.77s1.78.11,2.59.58a5.19,5.19,0,0,1,.81.58A1.4,1.4,0,0,1,297.82,167.84Z" transform="translate(-36.13 -26.66)"/><path d="M237.34,100c0-.12-.06-.25-.09-.37l-3.19,1.09-2,.44c5.78,26.41.08,52-16,72-16.5,20.5-42.57,33.24-68,33.24a85.6,85.6,0,0,1-77-47.57l-6.26,3.13A92.55,92.55,0,0,0,148,213.38a90.41,90.41,0,0,0,29.73-5.19,90.63,90.63,0,0,0,28.51-15.63,94.27,94.27,0,0,0,15.25-15c17.48-21.71,23.67-49.38,17.43-77.9Z" transform="translate(-36.13 -26.66)"/><path d="M55,125.15c1-.25,2-.48,3-.71q4.06-.91,8.2-1.55c2.16-.32,4.31-.71,6.47-1.07,1.78-.3,3.56-.61,5.35-.87,2.35-.35,4.71-.64,7.06-1,3.16-.5,6.3-1.07,9.44-1.59,3.34-.56,6.67-1.12,10-1.63,2.22-.33,4.45-.56,6.67-.84.48-.07.75.16.75.62a11.5,11.5,0,0,1-.12,1.85,1.76,1.76,0,0,1-1.69,1.79c-.66.13-1.32.21-2,.31L98.44,122l-14.12,2.17c-3.77.58-7.53,1.15-11.3,1.75-1.46.23-1.46.27-1.43,1.72,0,.19,0,.38,0,.57A53,53,0,0,0,73,137.64c.09.42.22.82.32,1.24a.45.45,0,0,0,.65.35,8.26,8.26,0,0,0,.94-.36c2.68-1.24,5.4-2.41,8-3.75,8.09-4.1,16.13-8.27,24.2-12.41,1.15-.58,2.31-1.14,3.48-1.67.49-.22.75-.06.77.46,0,.9,0,1.82.06,2.72a1.34,1.34,0,0,1-.91,1.43c-2.27,1.1-4.52,2.27-6.78,3.4q-16.56,8.31-33.11,16.63c-.64.32-1.26.69-1.89,1a1,1,0,0,0-.54,1.32,3.18,3.18,0,0,0,.22.68q1.55,3.06,3.11,6.11c.29.56.68.54,1.19.27,1.18-.63,2.37-1.22,3.57-1.82,2.43-1.21,4.91-2.33,7.29-3.64,9.08-5,18.13-10,27.19-15,.33-.19.68-.35,1-.55s.64-.09.74.31c.16.75.29,1.5.44,2.25.24,1.22.25,1.23-.76,1.78L83.78,154.08c-1.09.59-2.16,1.22-3.25,1.81-.47.25-.61.55-.37,1s.57,1.31.91,1.94a85.24,85.24,0,0,0,5.84,8.66,65.2,65.2,0,0,0,12.41,13,98.15,98.15,0,0,0,13.19,8.83,49.09,49.09,0,0,0,9.59,4.44c.59.18,1.19.34,1.8.47s.71-.12.68-.62c0-.19,0-.39,0-.58q0-18,0-36c0-1.38-.15-2.76-.27-4.14a2.51,2.51,0,0,0-.38-1.05,12.59,12.59,0,0,0-1.06-1.35,29.15,29.15,0,0,1-4.37-6.35,47.71,47.71,0,0,1-4.7-22.6,7.41,7.41,0,0,1,.28-1.37c.36.27.73.51,1.06.8a10.33,10.33,0,0,1,.79.83,8.74,8.74,0,0,0,5.59,2.92c3.25.33,6.19-.31,8.35-3a23,23,0,0,0,1.4-2c1.12-1.74.68-1.77,2.87-.87a11.29,11.29,0,0,0,3.08,1.07c4,.35,7.22-1,9.42-4.44.3-.47.61-.94.92-1.4a9.75,9.75,0,0,1,1,1.44,10.68,10.68,0,0,0,5.94,5.31c1.2.45,2.45.78,3.68,1.17a13.42,13.42,0,0,1,1.35.46c.71.3.76.5.21,1-.72.63-1.49,1.2-2.23,1.79A20.21,20.21,0,0,0,150.36,136a10.08,10.08,0,0,0-.16,5.5,1.27,1.27,0,0,0,.2.33c.08-.09.21-.18.25-.29.31-1,.58-1.91.89-2.86a16.33,16.33,0,0,1,4.34-7,32.86,32.86,0,0,1,7.66-5.48c1.32-.66,2.69-1.22,4-1.83l2.73-1.25a1.59,1.59,0,0,0,1-1.69c-.06-.84-.68-1.09-1.32-1.32a4,4,0,0,0-.68-.19c-1.55-.3-3.1-.56-4.64-.89-2.46-.52-4.93-1.06-7.37-1.67a8.48,8.48,0,0,1-3.52-1.85,6.26,6.26,0,0,1-2.07-6.72,6.47,6.47,0,0,1,5.48-5,13.26,13.26,0,0,1,3.56.14c4.17.76,8.33,1.59,12.48,2.46,2.84.59,5.67,1.27,8.49,2a6.74,6.74,0,0,1,5.2,5.33,14.2,14.2,0,0,1,.43,3.1c.06,5.11.05,10.22.07,15.33a37.44,37.44,0,0,1-.91,8.52c-1.88,8.28-6.8,13.91-14.79,16.83a23.91,23.91,0,0,1-2.32.72c-.46.11-.65.33-.61.79s0,.67,0,1v34.39c0,1.38,0,1.39,1.38,1a79.82,79.82,0,0,0,17.45-7.47A77.45,77.45,0,0,0,214,163a76.26,76.26,0,0,0,10-22.38,70.91,70.91,0,0,0,2.44-15.93,79.7,79.7,0,0,0-.63-14.57c-.34-2.26-.81-4.5-1.26-6.74-.22-1.06-.33-1.1-1.32-.93-1.5.25-3,.53-4.51.76-5.22.8-10.45,1.57-15.68,2.38q-7.56,1.16-15.1,2.38a2.79,2.79,0,0,1-2.15-.48,17.12,17.12,0,0,0-2.38-1.29c-.65-.3-1.34-.5-2-.77-.14-.06-.22-.26-.32-.4.13,0,.25-.11.39-.14l6.5-1L199.75,102c4-.61,7.91-1.2,11.87-1.82s7.8-1.31,11.71-1.85c1.46-.21,1.81.08,1.42-2.09-.2-1.1-.21-1.12-1.39-1s-2.37.26-3.55.4l-6.1.72L207.6,97c-2.89.34-5.77.71-8.66,1s-5.78.61-8.67.94-5.77.71-8.66,1c-1,.13-2.08.25-3.13.31-.65,0-.79-.12-.76-.72,0-.81.12-1.62.14-2.43,0-.58.22-.87.83-.92A8.77,8.77,0,0,0,182.42,95c1.78-1,3.57-2,5.36-3,6.57-3.7,13.13-7.42,19.71-11.1,5.58-3.12,11.19-6.18,16.78-9.27l.43-.24,1.3-.73c-.29-.64-.58-1.29-.88-1.94,0-.09-.1-.16-.14-.25-.13-.29-.33-.28-.57-.15l-.64.32-.72.36q-8.72,4.36-17.43,8.76c-7.87,4-15.73,8-23.6,12-1.06.54-2.16,1-3.24,1.5-.43.19-.64,0-.64-.43,0-1,0-2.11,0-3.16,0-.52.3-.75.7-1,1.14-.61,2.25-1.26,3.4-1.84,5-2.49,10-5,15-7.45q5.44-2.7,10.87-5.44c.63-.32.67-.38.21-.91-1.89-2.15-3.7-4.38-5.74-6.38A73.21,73.21,0,0,0,186.86,53a78.64,78.64,0,0,0-48-9.16,80.33,80.33,0,0,0-14.62,3.29A76.67,76.67,0,0,0,100.47,60a65.88,65.88,0,0,0-8.28,7.47A88.5,88.5,0,0,0,81.33,82.54a72.84,72.84,0,0,0-7.8,18.38c-.56,2.21-.86,4.49-1.24,6.74-.15.87,0,1,.92.91s2-.17,3-.27,2.27-.24,3.41-.38c2.69-.33,5.38-.69,8.07-1l8.09-1c2-.25,4-.48,6-.71,2.18-.26,4.35-.53,6.53-.74,1.71-.17,3.42-.3,5.14-.38.84,0,.9.06,1,.85.05.62.12,1.24.17,1.85.08.85,0,.92-.85,1.18a4.94,4.94,0,0,1-.55.15c-2.46.3-4.92.61-7.38.9-1.32.15-2.66.25-4,.39-2.23.24-4.45.5-6.68.75l-6,.69-8.66,1c-2,.24-4.07.46-6.1.71-1.84.23-3.68.5-5.52.72-2,.24-4.07.45-6.1.69-1.5.17-3,.36-4.49.54-1.34.17-2.69.32-4,.46-3.32.34-6.65.52-10,.93a35.83,35.83,0,0,0-5.58,1.21c-2.06.6-2.66,1.52-2.57,3.71a17.51,17.51,0,0,0,2,7,1.09,1.09,0,0,0,1.2.6,32.69,32.69,0,0,0,3.68-.44C47.06,127.05,51.05,126.14,55,125.15Zm108.52-44.1a5.33,5.33,0,0,1,2.81-4.53,6.6,6.6,0,0,1,5.19-.94,4.78,4.78,0,0,1,3,2.3,13,13,0,0,1,1.41,5.62c0,.29,0,.58,0,.94-.12,2.11-.24,4.29-.37,6.48,0,.71-.11,1.42-.13,2.14-.12,2.76-.21,5.52-.32,8.28-.05,1.07-.24,1.21-1.34,1-2-.4-3.91-.82-5.86-1.24-1-.21-2-.46-3.07-.64a.79.79,0,0,1-.76-.85c0-.52-.16-1-.18-1.56q-.21-6.42-.38-12.86C163.48,83.81,163.47,82.43,163.55,81.05Zm-15.42,3.82a5.46,5.46,0,0,1,2.5-3.52A6.26,6.26,0,0,1,160,84.6a24.16,24.16,0,0,1,.45,3.53c0,.23,0,.47,0,1.06-.15,2.94-.33,6.22-.49,9.51,0,.55-.27.73-.79.76-1,.06-2,.11-3,.26a10.09,10.09,0,0,0-6.54,4c-.23.29-.51.55-.76.82a4.7,4.7,0,0,1-.44-1.14c-.14-1.71-.25-3.42-.31-5.14s0-3.43,0-5.15c0-1.09-.13-2.19-.2-3.28A17.32,17.32,0,0,1,148.13,84.87Zm-15.51,4.78a6,6,0,0,1,5.22-4.47c3-.48,6.3,2.11,6.6,4.86.17,1.57.26,3.13.38,4.55-.21,3.21-.41,6.25-.59,9.29-.06,1,0,1.91-.1,2.87-.07,1.38-.1,2.76-.26,4.13-.32,2.75-1.89,4.71-4.83,5a5.27,5.27,0,0,1-5.9-4.43,41.61,41.61,0,0,1-.45-5.12c-.08-1.33,0-2.67-.07-4-.12-2.28-.3-4.56-.47-6.84A16.72,16.72,0,0,1,132.62,89.65ZM117,94.28c1-4.2,6.58-5.63,9.84-2.81A5.8,5.8,0,0,1,129,95.84c0,1.14.17,2.28.17,3.43s-.13,2.19-.19,3.28h.13c-.22,3.19-.43,6.38-.65,9.56-.1,1.43-.1,2.87-.33,4.27-.45,2.87-2.61,4.48-5.62,4.35a5.43,5.43,0,0,1-5.07-4.79c-.15-1.66-.23-3.33-.31-5-.11-2.71-.18-5.43-.28-8.15-.08-1.91-.24-3.81-.24-5.71A12.85,12.85,0,0,1,117,94.28Z" transform="translate(-36.13 -26.66)"/><path d="M223.55,64.13a95.83,95.83,0,0,0-15.11-15.81,92.28,92.28,0,0,0-20.93-13.09A89.51,89.51,0,0,0,171,29.57a73.48,73.48,0,0,0-9.54-1.77c-2.47-.24-4.92-.65-7.39-.73-1.86-.06-3.71-.12-5.56-.13h-.29a58.87,58.87,0,0,0-6.89.34c-2.69.31-5.41.51-8.08,1A93.06,93.06,0,0,0,77.73,60.13,91.86,91.86,0,0,0,61.08,89.31a94.76,94.76,0,0,0-4.53,19.45c-.06.47,0,.74.57.71l5.71-.28c.59,0,.65-.41.72-.86A82.1,82.1,0,0,1,68.76,89.8,91.24,91.24,0,0,1,96.37,53.31a82,82,0,0,1,22-12.6A83.94,83.94,0,0,1,136,36a98.32,98.32,0,0,1,11-1,89.57,89.57,0,0,1,21,2.14,84.18,84.18,0,0,1,23,8.93,85.13,85.13,0,0,1,22.17,18.13c1.19,1.37,2.34,2.77,3.52,4.15.72.85.73.84,1.82.47l2.16-.73c1-.35,2.08-.7,3.11-1.08a1.89,1.89,0,0,0,.47-.36C223.88,65.78,224.15,64.91,223.55,64.13Z" transform="translate(-36.13 -26.66)"/><path d="M69.15,156c-.9-2.46-1.82-4.92-2.72-7.37,0-.09-.05-.19-.08-.28-.13-.3-.31-.47-.66-.31l-.9.44-11,5.1c-3,1.37-6,2.73-9,4.13A13.39,13.39,0,0,0,42.76,159a1.1,1.1,0,0,0-.47,1.24,20.35,20.35,0,0,0,2.23,6.15,6.52,6.52,0,0,0,1.38,1.62,7,7,0,0,0,1.54.79,14.65,14.65,0,0,0,2.06-.61c2-.92,4-1.83,5.91-2.87C60,162.9,64,159.57,68.73,157.3,69.44,157,69.44,156.81,69.15,156Z" transform="translate(-36.13 -26.66)"/><path d="M215.78,81.62c-.24-.31-.45-.35-.83-.13-2.45,1.38-4.92,2.71-7.38,4.08l-14.35,8c-.37.21-.73.45-1.09.68a1.9,1.9,0,0,0-.21.19,2.08,2.08,0,0,0,.32.12,1.4,1.4,0,0,0,.29,0l.57,0,7.22-.82,5.82-.65,6.66-.77q3.48-.39,6.95-.81c.79-.1.81-.14.53-.95a39.93,39.93,0,0,0-3.92-8.08C216.19,82.15,216,81.89,215.78,81.62Z" transform="translate(-36.13 -26.66)"/><path d="M230,74c-.2-.37-.39-.78-.93-.76a2.33,2.33,0,0,1-2-1.15.5.5,0,0,0-.84-.11c-1.35,1.05-2.71,2.11-4.07,3.15-.3.23-.27.46-.08.73l.38.61A82.54,82.54,0,0,1,228.09,87c.42,1,.84,1.92,1.23,2.89.18.42.38.5.86.41A15.9,15.9,0,0,1,233,90c1.14,0,2.28.08,3.42.12.78.11.81.08.55-.71a80.43,80.43,0,0,0-4.07-9.9C232,77.65,231,75.83,230,74Z" transform="translate(-36.13 -26.66)"/><path d="M57.25,145.45c0,.67.2.81.77.57,2-.81,4-1.65,6.08-2.47.46-.19.73-.44.61-1-.06-.28-.14-.55-.18-.83-.53-3.19-1.08-6.38-1.57-9.57-.16-1.09-.22-2.2-.31-3.3l0-.39c0-.41-.21-.59-.66-.48-1.21.27-2.42.52-3.63.76l-.52.11c-1.51.33-1.58.6-1.26,2.48a37,37,0,0,1,.7,9C57.25,142.3,57.23,143.88,57.25,145.45Z" transform="translate(-36.13 -26.66)"/><path class="cls-3" d="M239.68,63.59a3.58,3.58,0,0,1-1.37,2.28c-2.07,1.68-4.13,3.37-6.23,5a8.9,8.9,0,0,1-2,1.15,1.57,1.57,0,0,1-2.33-.68c-.92-1.61-1.7-3.29-2.53-5-.42-.85-.3-1.75.88-2.58a6.35,6.35,0,0,1,1.94-.9c2.89-.79,5.8-1.51,8.7-2.25a2.31,2.31,0,0,1,.37-.06A2.57,2.57,0,0,1,239.68,63.59Z" transform="translate(-36.13 -26.66)"/><path class="cls-3" d="M243.14,95.72a6.17,6.17,0,0,1-2,1.35c-2.62,1-5.28,1.91-7.94,2.78a8.26,8.26,0,0,1-2.12.23,1.4,1.4,0,0,1-1.57-1.17c-.19-.83-.32-1.67-.45-2.52s-.23-1.69-.34-2.54a2.09,2.09,0,0,1,2.08-2.62c1.23-.1,2.47,0,3.71,0V91.1c2,.14,4,.26,6,.43A3.6,3.6,0,0,1,243.32,93,1.87,1.87,0,0,1,243.14,95.72Z" transform="translate(-36.13 -26.66)"/></svg>